<mxfile host="app.diagrams.net" agent="Mozilla/5.0 (X11; Linux x86_64) AppleWebKit/537.36 (KHTML, like Gecko) Chrome/132.0.0.0 Safari/537.36" version="26.0.14">
  <diagram name="Page-1" id="5f0bae14-7c28-e335-631c-24af17079c00">
    <mxGraphModel dx="1368" dy="788" grid="1" gridSize="10" guides="1" tooltips="1" connect="1" arrows="1" fold="1" page="1" pageScale="1" pageWidth="1100" pageHeight="850" background="none" math="0" shadow="0">
      <root>
        <mxCell id="0" />
        <mxCell id="1" parent="0" />
        <mxCell id="YJwmVk056Xezfj7SXpw_-1" value="" style="rounded=0;whiteSpace=wrap;html=1;" vertex="1" parent="1">
          <mxGeometry x="80" y="45" width="570" height="320" as="geometry" />
        </mxCell>
        <mxCell id="YJwmVk056Xezfj7SXpw_-18" value="" style="rounded=1;whiteSpace=wrap;html=1;" vertex="1" parent="1">
          <mxGeometry x="120" y="170" width="330" height="70" as="geometry" />
        </mxCell>
        <mxCell id="YJwmVk056Xezfj7SXpw_-2" value="Local Data" style="text;strokeColor=none;fillColor=none;align=left;verticalAlign=middle;spacingLeft=4;spacingRight=4;overflow=hidden;points=[[0,0.5],[1,0.5]];portConstraint=eastwest;rotatable=0;whiteSpace=wrap;html=1;" vertex="1" parent="1">
          <mxGeometry x="120" y="60" width="80" height="30" as="geometry" />
        </mxCell>
        <mxCell id="YJwmVk056Xezfj7SXpw_-3" value="Mobile Device" style="text;strokeColor=none;fillColor=none;align=left;verticalAlign=middle;spacingLeft=4;spacingRight=4;overflow=hidden;points=[[0,0.5],[1,0.5]];portConstraint=eastwest;rotatable=0;whiteSpace=wrap;html=1;" vertex="1" parent="1">
          <mxGeometry x="495" y="60" width="100" height="30" as="geometry" />
        </mxCell>
        <mxCell id="YJwmVk056Xezfj7SXpw_-4" value="" style="rounded=1;whiteSpace=wrap;html=1;" vertex="1" parent="1">
          <mxGeometry x="120" y="90" width="330" height="70" as="geometry" />
        </mxCell>
        <mxCell id="YJwmVk056Xezfj7SXpw_-5" value="Presentation" style="text;strokeColor=none;fillColor=none;align=left;verticalAlign=middle;spacingLeft=4;spacingRight=4;overflow=hidden;points=[[0,0.5],[1,0.5]];portConstraint=eastwest;rotatable=0;whiteSpace=wrap;html=1;" vertex="1" parent="1">
          <mxGeometry x="120" y="110" width="80" height="30" as="geometry" />
        </mxCell>
        <mxCell id="YJwmVk056Xezfj7SXpw_-6" value="" style="endArrow=none;html=1;rounded=0;entryX=0.39;entryY=0.08;entryDx=0;entryDy=0;entryPerimeter=0;exitX=0.386;exitY=0.94;exitDx=0;exitDy=0;exitPerimeter=0;" edge="1" parent="1">
          <mxGeometry width="50" height="50" relative="1" as="geometry">
            <mxPoint x="199.00000000000009" y="155.09999999999997" as="sourcePoint" />
            <mxPoint x="199.87999999999997" y="94.90000000000002" as="targetPoint" />
          </mxGeometry>
        </mxCell>
        <mxCell id="YJwmVk056Xezfj7SXpw_-7" value="UI" style="rounded=0;whiteSpace=wrap;html=1;" vertex="1" parent="1">
          <mxGeometry x="210" y="100" width="220" height="20" as="geometry" />
        </mxCell>
        <mxCell id="YJwmVk056Xezfj7SXpw_-8" value="Presentation Logic" style="rounded=0;whiteSpace=wrap;html=1;" vertex="1" parent="1">
          <mxGeometry x="210" y="130" width="220" height="20" as="geometry" />
        </mxCell>
        <mxCell id="YJwmVk056Xezfj7SXpw_-12" value="Business" style="text;strokeColor=none;fillColor=none;align=left;verticalAlign=middle;spacingLeft=4;spacingRight=4;overflow=hidden;points=[[0,0.5],[1,0.5]];portConstraint=eastwest;rotatable=0;whiteSpace=wrap;html=1;" vertex="1" parent="1">
          <mxGeometry x="120" y="190" width="80" height="30" as="geometry" />
        </mxCell>
        <mxCell id="YJwmVk056Xezfj7SXpw_-13" value="Application Facade" style="rounded=0;whiteSpace=wrap;html=1;" vertex="1" parent="1">
          <mxGeometry x="210" y="180" width="220" height="20" as="geometry" />
        </mxCell>
        <mxCell id="YJwmVk056Xezfj7SXpw_-14" value="work flow" style="rounded=0;whiteSpace=wrap;html=1;" vertex="1" parent="1">
          <mxGeometry x="210" y="210" width="60" height="20" as="geometry" />
        </mxCell>
        <mxCell id="YJwmVk056Xezfj7SXpw_-16" value="Components" style="rounded=0;whiteSpace=wrap;html=1;" vertex="1" parent="1">
          <mxGeometry x="280" y="210" width="70" height="20" as="geometry" />
        </mxCell>
        <mxCell id="YJwmVk056Xezfj7SXpw_-17" value="Entities" style="rounded=0;whiteSpace=wrap;html=1;" vertex="1" parent="1">
          <mxGeometry x="360" y="210" width="70" height="20" as="geometry" />
        </mxCell>
        <mxCell id="YJwmVk056Xezfj7SXpw_-21" value="" style="endArrow=none;html=1;rounded=0;entryX=0.39;entryY=0.08;entryDx=0;entryDy=0;entryPerimeter=0;exitX=0.386;exitY=0.94;exitDx=0;exitDy=0;exitPerimeter=0;" edge="1" parent="1">
          <mxGeometry width="50" height="50" relative="1" as="geometry">
            <mxPoint x="199" y="235" as="sourcePoint" />
            <mxPoint x="200" y="175" as="targetPoint" />
          </mxGeometry>
        </mxCell>
        <mxCell id="YJwmVk056Xezfj7SXpw_-22" value="" style="rounded=1;whiteSpace=wrap;html=1;" vertex="1" parent="1">
          <mxGeometry x="120" y="250" width="330" height="70" as="geometry" />
        </mxCell>
        <mxCell id="YJwmVk056Xezfj7SXpw_-23" value="Data" style="text;strokeColor=none;fillColor=none;align=left;verticalAlign=middle;spacingLeft=4;spacingRight=4;overflow=hidden;points=[[0,0.5],[1,0.5]];portConstraint=eastwest;rotatable=0;whiteSpace=wrap;html=1;" vertex="1" parent="1">
          <mxGeometry x="120" y="270" width="80" height="30" as="geometry" />
        </mxCell>
        <mxCell id="YJwmVk056Xezfj7SXpw_-24" value="" style="endArrow=none;html=1;rounded=0;entryX=0.39;entryY=0.08;entryDx=0;entryDy=0;entryPerimeter=0;exitX=0.386;exitY=0.94;exitDx=0;exitDy=0;exitPerimeter=0;" edge="1" parent="1">
          <mxGeometry width="50" height="50" relative="1" as="geometry">
            <mxPoint x="199" y="315" as="sourcePoint" />
            <mxPoint x="200" y="255" as="targetPoint" />
          </mxGeometry>
        </mxCell>
        <mxCell id="YJwmVk056Xezfj7SXpw_-25" value="Data Access" style="rounded=0;whiteSpace=wrap;html=1;" vertex="1" parent="1">
          <mxGeometry x="210" y="275" width="70" height="20" as="geometry" />
        </mxCell>
        <mxCell id="YJwmVk056Xezfj7SXpw_-26" value="Data Utilities" style="rounded=0;whiteSpace=wrap;html=1;" vertex="1" parent="1">
          <mxGeometry x="285" y="275" width="70" height="20" as="geometry" />
        </mxCell>
        <mxCell id="YJwmVk056Xezfj7SXpw_-27" value="&lt;font style=&quot;font-size: 11px;&quot;&gt;Service Tools&lt;/font&gt;" style="rounded=0;whiteSpace=wrap;html=1;" vertex="1" parent="1">
          <mxGeometry x="360" y="275" width="70" height="20" as="geometry" />
        </mxCell>
        <mxCell id="YJwmVk056Xezfj7SXpw_-33" value="" style="rounded=0;whiteSpace=wrap;html=1;" vertex="1" parent="1">
          <mxGeometry x="490" y="130" width="100" height="40" as="geometry" />
        </mxCell>
        <mxCell id="YJwmVk056Xezfj7SXpw_-34" value="" style="rounded=1;whiteSpace=wrap;html=1;" vertex="1" parent="1">
          <mxGeometry x="470" y="90" width="150" height="230" as="geometry" />
        </mxCell>
        <mxCell id="YJwmVk056Xezfj7SXpw_-35" value="Configuration" style="rounded=0;whiteSpace=wrap;html=1;" vertex="1" parent="1">
          <mxGeometry x="487.5" y="130" width="115" height="30" as="geometry" />
        </mxCell>
        <mxCell id="YJwmVk056Xezfj7SXpw_-36" value="Security" style="rounded=0;whiteSpace=wrap;html=1;" vertex="1" parent="1">
          <mxGeometry x="487.5" y="190" width="115" height="30" as="geometry" />
        </mxCell>
        <mxCell id="YJwmVk056Xezfj7SXpw_-37" value="Communications" style="rounded=0;whiteSpace=wrap;html=1;" vertex="1" parent="1">
          <mxGeometry x="487.5" y="250" width="115" height="30" as="geometry" />
        </mxCell>
        <mxCell id="YJwmVk056Xezfj7SXpw_-38" value="Common" style="text;strokeColor=none;fillColor=none;align=left;verticalAlign=middle;spacingLeft=4;spacingRight=4;overflow=hidden;points=[[0,0.5],[1,0.5]];portConstraint=eastwest;rotatable=0;whiteSpace=wrap;html=1;" vertex="1" parent="1">
          <mxGeometry x="515" y="90" width="80" height="30" as="geometry" />
        </mxCell>
        <mxCell id="YJwmVk056Xezfj7SXpw_-39" value="" style="rounded=0;whiteSpace=wrap;html=1;" vertex="1" parent="1">
          <mxGeometry x="80" y="410" width="570" height="85" as="geometry" />
        </mxCell>
        <mxCell id="YJwmVk056Xezfj7SXpw_-40" value="" style="rounded=1;whiteSpace=wrap;html=1;" vertex="1" parent="1">
          <mxGeometry x="90" y="430" width="230" height="45" as="geometry" />
        </mxCell>
        <mxCell id="YJwmVk056Xezfj7SXpw_-41" value="Data" style="text;strokeColor=none;fillColor=none;align=left;verticalAlign=middle;spacingLeft=4;spacingRight=4;overflow=hidden;points=[[0,0.5],[1,0.5]];portConstraint=eastwest;rotatable=0;whiteSpace=wrap;html=1;" vertex="1" parent="1">
          <mxGeometry x="100" y="437" width="80" height="30" as="geometry" />
        </mxCell>
        <mxCell id="YJwmVk056Xezfj7SXpw_-42" value="Data Access" style="rounded=1;whiteSpace=wrap;html=1;" vertex="1" parent="1">
          <mxGeometry x="160" y="437.5" width="80" height="30" as="geometry" />
        </mxCell>
        <mxCell id="YJwmVk056Xezfj7SXpw_-44" value="" style="rounded=1;whiteSpace=wrap;html=1;" vertex="1" parent="1">
          <mxGeometry x="330" y="430" width="237.5" height="45" as="geometry" />
        </mxCell>
        <mxCell id="YJwmVk056Xezfj7SXpw_-45" value="Services" style="rounded=1;whiteSpace=wrap;html=1;" vertex="1" parent="1">
          <mxGeometry x="345" y="437" width="100" height="30" as="geometry" />
        </mxCell>
        <mxCell id="YJwmVk056Xezfj7SXpw_-46" value="Sync" style="rounded=1;whiteSpace=wrap;html=1;" vertex="1" parent="1">
          <mxGeometry x="452.5" y="437" width="100" height="30" as="geometry" />
        </mxCell>
        <mxCell id="YJwmVk056Xezfj7SXpw_-47" value="Remote&lt;div&gt;Infrastructure&lt;/div&gt;" style="text;strokeColor=none;fillColor=none;align=left;verticalAlign=middle;spacingLeft=4;spacingRight=4;overflow=hidden;points=[[0,0.5],[1,0.5]];portConstraint=eastwest;rotatable=0;whiteSpace=wrap;html=1;" vertex="1" parent="1">
          <mxGeometry x="567.5" y="437" width="80" height="30" as="geometry" />
        </mxCell>
        <mxCell id="YJwmVk056Xezfj7SXpw_-49" value="" style="endArrow=classic;startArrow=classic;html=1;rounded=0;exitX=0.039;exitY=0.047;exitDx=0;exitDy=0;exitPerimeter=0;entryX=0.04;entryY=0.994;entryDx=0;entryDy=0;entryPerimeter=0;" edge="1" parent="1" source="YJwmVk056Xezfj7SXpw_-39" target="YJwmVk056Xezfj7SXpw_-1">
          <mxGeometry width="50" height="50" relative="1" as="geometry">
            <mxPoint x="550" y="370" as="sourcePoint" />
            <mxPoint x="597" y="360" as="targetPoint" />
          </mxGeometry>
        </mxCell>
        <mxCell id="YJwmVk056Xezfj7SXpw_-52" value="" style="edgeStyle=orthogonalEdgeStyle;rounded=0;orthogonalLoop=1;jettySize=auto;html=1;" edge="1" parent="1" source="YJwmVk056Xezfj7SXpw_-51" target="YJwmVk056Xezfj7SXpw_-5">
          <mxGeometry relative="1" as="geometry" />
        </mxCell>
        <mxCell id="YJwmVk056Xezfj7SXpw_-51" value="User" style="rounded=1;whiteSpace=wrap;html=1;" vertex="1" parent="1">
          <mxGeometry x="10" y="95" width="60" height="60" as="geometry" />
        </mxCell>
      </root>
    </mxGraphModel>
  </diagram>
</mxfile>
